# xmcd
#
# Track frame offsets:
#	150
#	13473
#	32691
#	50970
#	67682
#	85013
#	100132
#	113453
#	132669
#	150947
#	167658
#	184988
#
# Disc length: 2668 seconds
#
# Revision: 1
# Processed by: cddbd v1.5.2PL0 Copyright (c) Steve Scherf et al.
# Submitted via: audiograbber 1.83.01
#
DISCID=960a6a0c
DTITLE=Vaious - CB20026 Hot Hits Vol. 26
DYEAR=1900
DGENRE=Country
TTITLE0=Garth Brooks - She's Gonna Make It (Vocals)
TTITLE1=Patty Loveless - To Have You Back Again (Vocals)
TTITLE2=Delbert McClinton - Sending Me Angels (Vocals)
TTITLE3=John Anderson - Takin' The Country Back (Vocals)
TTITLE4=Shania Twain - You're Still the One
TTITLE5=Rhett Akins - Better Than It Used To Be (Vocals)
TTITLE6=Garth Brooks - She's Gonna Make It
TTITLE7=Patty Loveless - To Have You Back Again
TTITLE8=Delbert McClinton - Sending Me Angels
TTITLE9=John Anderson - Takin' The Country Back
TTITLE10=Shania Twain - Your Still The One
TTITLE11=Rhett Akins - Better Than It Used To Be
EXTD=
EXTT0=
EXTT1=
EXTT2=
EXTT3=
EXTT4=
EXTT5=
EXTT6=
EXTT7=
EXTT8=
EXTT9=
EXTT10=
EXTT11=
PLAYORDER=
